# Blender v2.79 (sub 0) OBJ File: 'tile.blend'
# www.blender.org
mtllib teepee.mtl
o Cone
v 0.202441 0.657015 -2.482051
v 2.351960 0.657015 -1.241025
v 2.351960 0.657015 1.241025
v 0.202441 0.657015 2.482051
v 0.202441 5.621117 0.000000
v -1.947078 0.657015 1.241025
v -1.947078 0.657015 -1.241025
v 0.024819 5.089423 0.011972
v -0.000598 5.101768 0.032107
v 0.439616 6.172180 -0.021799
v 0.391661 6.117699 -0.011626
v 0.456284 6.151209 -0.055535
v 0.408329 6.096728 -0.045362
v 0.434816 6.163522 -0.090794
v 0.386861 6.109042 -0.080622
v 1.022925 6.831657 -0.215547
v 1.044394 6.819344 -0.180288
v 0.874452 6.489316 -1.000000
v 0.116290 7.141383 -0.000000
v 1.632613 5.837249 -0.000000
v 1.027725 6.840315 -0.146552
v 0.995956 6.865589 -0.160961
v 0.992989 6.860238 -0.203603
v 0.404880 6.192103 -0.078850
v 0.356924 6.137623 -0.068677
v 0.407846 6.197453 -0.036208
v 0.359891 6.142973 -0.026036
v 0.174002 7.091747 0.382683
v 0.338350 6.950397 0.707106
v 0.584316 6.738852 0.923879
v 0.874451 6.489316 0.999999
v 1.164587 6.239780 0.923879
v 1.410552 6.028235 0.707106
v 1.574901 5.886885 0.382683
v -0.002446 6.886590 0.270598
v 0.012317 6.571317 0.499999
v 0.158333 6.243559 0.653281
v 0.413370 5.953216 0.707106
v 0.738604 5.744489 0.653281
v 1.084519 5.649155 0.499999
v 1.398453 5.681728 0.270598
v -0.075533 6.801612 -0.000000
v -0.122730 6.414297 -0.000000
v -0.018116 6.038402 -0.000000
v 0.222384 5.731156 -0.000000
v 0.562156 5.539332 -0.000000
v 0.949471 5.492135 -0.000000
v 1.325365 5.596749 -0.000000
v -0.002446 6.886590 -0.270598
v 0.012317 6.571317 -0.500000
v 0.158333 6.243559 -0.653281
v 0.413370 5.953216 -0.707107
v 0.738604 5.744489 -0.653281
v 1.084519 5.649155 -0.500000
v 1.398453 5.681728 -0.270598
v 0.174002 7.091747 -0.382683
v 0.338350 6.950397 -0.707106
v 0.584316 6.738852 -0.923879
v 1.164587 6.239780 -0.923879
v 1.410552 6.028235 -0.707106
v 1.574901 5.886885 -0.382683
vt 0.201326 0.834199
vt 0.198884 0.834199
vt 0.198884 0.868470
vt 0.201326 0.868470
vt 0.159705 0.939166
vt 0.159705 0.937029
vt 0.120537 0.937029
vt 0.120537 0.939166
vt 0.203775 0.834199
vt 0.201332 0.834199
vt 0.201332 0.836336
vt 0.203775 0.836336
vt 0.201326 0.868476
vt 0.198884 0.868476
vt 0.198884 0.902747
vt 0.201326 0.902747
vt 0.203775 0.836341
vt 0.201332 0.836341
vt 0.201332 0.838478
vt 0.203775 0.838478
vt 0.202265 0.838484
vt 0.203775 0.838892
vt 0.203775 0.840212
vt 0.202265 0.840620
vt 0.201332 0.839552
vt 0.202265 0.941308
vt 0.201332 0.940240
vt 0.202265 0.939171
vt 0.203775 0.939579
vt 0.203775 0.940900
vt 0.201326 0.939171
vt 0.198884 0.939171
vt 0.198884 0.941308
vt 0.201326 0.941308
vt 0.198878 0.939166
vt 0.198878 0.937029
vt 0.159710 0.937029
vt 0.159710 0.939166
vt 0.203775 0.937029
vt 0.201332 0.937029
vt 0.201332 0.939166
vt 0.203775 0.939166
vt 0.201326 0.902752
vt 0.198884 0.902752
vt 0.198884 0.937023
vt 0.201326 0.937023
vt 0.201326 0.937029
vt 0.201326 0.939166
vt 0.636638 0.541401
vt 0.351819 0.376961
vt 0.636637 0.212521
vt 0.351819 0.048081
vt 0.067001 0.212521
vt 0.067001 0.541401
vt 0.351819 0.705841
vt 0.861708 0.285522
vt 0.743302 0.213961
vt 0.743302 0.070841
vt 0.861708 -0.000720
vt 0.980113 0.070841
vt 0.980113 0.213961
vt 0.614210 0.939569
vt 0.565705 0.876208
vt 0.616159 0.867715
vt 0.538288 0.806723
vt 0.537001 0.731936
vt 0.642727 0.767154
vt 0.625712 0.813028
vt 0.564147 0.660793
vt 0.618044 0.603694
vt 0.696796 0.689986
vt 0.666383 0.726642
vt 0.693076 0.570590
vt 0.779200 0.570590
vt 0.786440 0.626999
vt 0.735402 0.656508
vt 0.856022 0.606725
vt 0.759101 0.739901
vt 0.735116 0.773147
vt 0.814014 0.661890
vt 0.784407 0.704143
vt 0.685825 0.842151
vt 0.656217 0.884404
vt 0.711130 0.806393
vt 0.734829 0.889786
vt 0.683791 0.919295
vt 0.803848 0.819652
vt 0.773435 0.856308
vt 0.844519 0.733266
vt 0.827505 0.779140
vt 0.854073 0.678579
vt 0.931944 0.739571
vt 0.933231 0.814358
vt 0.904527 0.670086
vt 0.691032 0.975704
vt 0.852187 0.942600
vt 0.777155 0.975704
vt 0.906084 0.885501
vn -0.1672 0.3212 0.9321
vn 0.6497 -0.4587 0.6062
vn -0.2982 0.0850 -0.9507
vn -0.7531 0.6573 -0.0301
vn -0.6543 -0.7434 0.1388
vn 0.6543 0.7434 -0.1388
vn 0.5688 -0.6047 -0.5575
vn 0.4588 0.3974 -0.7947
vn 0.9177 0.3974 0.0000
vn 0.4588 0.3974 0.7947
vn -0.4588 0.3974 0.7947
vn -0.9177 0.3974 0.0000
vn -0.4588 0.3974 -0.7947
vn 0.0000 -1.0000 0.0000
vn 0.6887 -0.6985 0.1945
vn 0.1859 -0.5894 0.7862
vn -0.3825 -0.1675 0.9087
vn -0.7606 0.3583 0.5414
vn 0.4681 -0.6984 0.5414
vn -0.1084 -0.4032 0.9087
vn -0.6106 0.0956 0.7862
vn -0.7937 0.5764 0.1945
vn -0.7295 -0.5711 0.3764
vn -0.9674 0.1179 0.2243
vn 0.2613 -0.9388 0.2243
vn -0.4555 -0.8068 0.3764
vn -0.9109 -0.2535 0.3256
vn -0.8680 0.4900 0.0805
vn 0.6144 -0.7849 0.0805
vn -0.1144 -0.9386 0.3256
vn 0.2613 -0.9388 -0.2243
vn -0.4555 -0.8068 -0.3764
vn -0.9109 -0.2535 -0.3256
vn -0.8680 0.4900 -0.0805
vn 0.6144 -0.7849 -0.0805
vn -0.1144 -0.9386 -0.3256
vn -0.7295 -0.5711 -0.3764
vn -0.9674 0.1179 -0.2243
vn -0.6106 0.0956 -0.7862
vn -0.7937 0.5764 -0.1945
vn 0.6887 -0.6985 -0.1945
vn 0.1859 -0.5894 -0.7862
vn -0.3825 -0.1675 -0.9087
vn -0.7606 0.3583 -0.5414
vn 0.4681 -0.6984 -0.5414
vn -0.1084 -0.4032 -0.9087
usemtl teepeetex
s off
f 26/1/1 10/2/1 21/3/1 22/4/1
f 10/5/2 12/6/2 17/7/2 21/8/2
f 25/9/3 24/10/3 14/11/3 15/12/3
f 14/13/3 24/14/3 23/15/3 16/16/3
f 27/17/4 26/18/4 24/19/4 25/20/4
f 15/21/5 13/22/5 11/23/5 27/24/5 25/25/5
f 17/26/6 16/27/6 23/28/6 22/29/6 21/30/6
f 11/31/1 10/32/1 26/33/1 27/34/1
f 12/35/7 14/36/7 16/37/7 17/38/7
f 13/39/2 12/40/2 10/41/2 11/42/2
f 24/43/4 26/44/4 22/45/4 23/46/4
f 15/47/7 14/36/7 12/35/7 13/48/7
usemtl teepeetex_tiletex
f 1/49/8 5/50/8 2/51/8
f 2/51/9 5/50/9 3/52/9
f 3/52/10 5/50/10 4/53/10
f 4/53/11 5/50/11 6/54/11
f 6/54/12 5/50/12 7/55/12
f 7/55/13 5/50/13 1/49/13
f 1/56/14 2/57/14 3/58/14 4/59/14 6/60/14 7/61/14
f 20/62/15 34/63/15 41/64/15
f 33/65/16 32/66/16 39/67/16 40/68/16
f 31/69/17 30/70/17 37/71/17 38/72/17
f 29/73/18 28/74/18 35/75/18 36/76/18
f 34/63/19 33/65/19 40/68/19 41/64/19
f 32/66/20 31/69/20 38/72/20 39/67/20
f 30/70/21 29/73/21 36/76/21 37/71/21
f 28/74/22 19/77/22 35/75/22
f 38/72/23 37/71/23 44/78/23 45/79/23
f 36/76/24 35/75/24 42/80/24 43/81/24
f 41/64/25 40/68/25 47/82/25 48/83/25
f 39/67/26 38/72/26 45/79/26 46/84/26
f 37/71/27 36/76/27 43/81/27 44/78/27
f 35/75/28 19/77/28 42/80/28
f 20/62/29 41/64/29 48/83/29
f 40/68/30 39/67/30 46/84/30 47/82/30
f 48/83/31 47/82/31 54/85/31 55/86/31
f 46/84/32 45/79/32 52/87/32 53/88/32
f 44/78/33 43/81/33 50/89/33 51/90/33
f 42/80/34 19/77/34 49/91/34
f 20/62/35 48/83/35 55/86/35
f 47/82/36 46/84/36 53/88/36 54/85/36
f 45/79/37 44/78/37 51/90/37 52/87/37
f 43/81/38 42/80/38 49/91/38 50/89/38
f 51/90/39 50/89/39 57/92/39 58/93/39
f 49/91/40 19/77/40 56/94/40
f 20/62/41 55/86/41 61/95/41
f 54/85/42 53/88/42 59/96/42 60/97/42
f 52/87/43 51/90/43 58/93/43 18/98/43
f 50/89/44 49/91/44 56/94/44 57/92/44
f 55/86/45 54/85/45 60/97/45 61/95/45
f 53/88/46 52/87/46 18/98/46 59/96/46
l 9 8
