# Blender v2.79 (sub 0) OBJ File: 'tile.blend'
# www.blender.org
mtllib teepee.mtl
o Cone
v 0.202441 0.657015 -2.482051
v 2.351960 0.657015 -1.241025
v 2.351960 0.657015 1.241025
v 0.202441 0.657015 2.482051
v 0.202441 5.621117 0.000000
v -1.947078 0.657015 1.241025
v -1.947078 0.657015 -1.241025
v 0.024819 5.089423 0.011972
v -0.000598 5.101768 0.032107
v 0.439616 6.172180 -0.021799
v 0.391661 6.117699 -0.011626
v 0.456284 6.151209 -0.055535
v 0.408329 6.096728 -0.045362
v 0.434816 6.163522 -0.090794
v 0.386861 6.109042 -0.080622
v 1.022925 6.831657 -0.215547
v 1.044394 6.819344 -0.180288
v 0.874452 6.489316 -1.000000
v 0.116290 7.141383 -0.000000
v 1.632613 5.837249 -0.000000
v 1.027725 6.840315 -0.146552
v 0.995956 6.865589 -0.160961
v 0.992989 6.860238 -0.203603
v 0.404880 6.192103 -0.078850
v 0.356924 6.137623 -0.068677
v 0.407846 6.197453 -0.036208
v 0.359891 6.142973 -0.026036
v 0.174002 7.091747 0.382683
v 0.338350 6.950397 0.707106
v 0.584316 6.738852 0.923879
v 0.874451 6.489316 0.999999
v 1.164587 6.239780 0.923879
v 1.410552 6.028235 0.707106
v 1.574901 5.886885 0.382683
v -0.002446 6.886590 0.270598
v 0.012317 6.571317 0.499999
v 0.158333 6.243559 0.653281
v 0.413370 5.953216 0.707106
v 0.738604 5.744489 0.653281
v 1.084519 5.649155 0.499999
v 1.398453 5.681728 0.270598
v -0.075533 6.801612 -0.000000
v -0.122730 6.414297 -0.000000
v -0.018116 6.038402 -0.000000
v 0.222384 5.731156 -0.000000
v 0.562156 5.539332 -0.000000
v 0.949471 5.492135 -0.000000
v 1.325365 5.596749 -0.000000
v -0.002446 6.886590 -0.270598
v 0.012317 6.571317 -0.500000
v 0.158333 6.243559 -0.653281
v 0.413370 5.953216 -0.707107
v 0.738604 5.744489 -0.653281
v 1.084519 5.649155 -0.500000
v 1.398453 5.681728 -0.270598
v 0.174002 7.091747 -0.382683
v 0.338350 6.950397 -0.707106
v 0.584316 6.738852 -0.923879
v 1.164587 6.239780 -0.923879
v 1.410552 6.028235 -0.707106
v 1.574901 5.886885 -0.382683
vt 0.201326 0.834199
vt 0.198884 0.834199
vt 0.198884 0.868470
vt 0.201326 0.868470
vt 0.159705 0.939166
vt 0.159705 0.937029
vt 0.120537 0.937029
vt 0.120537 0.939166
vt 0.203775 0.834199
vt 0.201332 0.834199
vt 0.201332 0.836336
vt 0.203775 0.836336
vt 0.201326 0.868476
vt 0.198884 0.868476
vt 0.198884 0.902747
vt 0.201326 0.902747
vt 0.203775 0.836341
vt 0.201332 0.836341
vt 0.201332 0.838478
vt 0.203775 0.838478
vt 0.202265 0.838484
vt 0.203775 0.838892
vt 0.203775 0.840212
vt 0.202265 0.840620
vt 0.201332 0.839552
vt 0.202265 0.941308
vt 0.201332 0.940240
vt 0.202265 0.939171
vt 0.203775 0.939579
vt 0.203775 0.940900
vt 0.201326 0.939171
vt 0.198884 0.939171
vt 0.198884 0.941308
vt 0.201326 0.941308
vt 0.198878 0.939166
vt 0.198878 0.937029
vt 0.159710 0.937029
vt 0.159710 0.939166
vt 0.203775 0.937029
vt 0.201332 0.937029
vt 0.201332 0.939166
vt 0.203775 0.939166
vt 0.201326 0.902752
vt 0.198884 0.902752
vt 0.198884 0.937023
vt 0.201326 0.937023
vt 0.201326 0.937029
vt 0.201326 0.939166
vt 0.636638 0.541401
vt 0.351819 0.376961
vt 0.636637 0.212521
vt 0.351819 0.048081
vt 0.067001 0.212521
vt 0.067001 0.541401
vt 0.351819 0.705841
vt 0.861708 0.285522
vt 0.743302 0.213961
vt 0.743302 0.070841
vt 0.861708 -0.000720
vt 0.980113 0.070841
vt 0.980113 0.213961
vt 0.614210 0.939569
vt 0.565705 0.876208
vt 0.616159 0.867715
vt 0.538288 0.806723
vt 0.537001 0.731936
vt 0.642727 0.767154
vt 0.625712 0.813028
vt 0.564147 0.660793
vt 0.618044 0.603694
vt 0.696796 0.689986
vt 0.666383 0.726642
vt 0.693076 0.570590
vt 0.779200 0.570590
vt 0.786440 0.626999
vt 0.735402 0.656508
vt 0.856022 0.606725
vt 0.759101 0.739901
vt 0.735116 0.773147
vt 0.814014 0.661890
vt 0.784407 0.704143
vt 0.685825 0.842151
vt 0.656217 0.884404
vt 0.711130 0.806393
vt 0.734829 0.889786
vt 0.683791 0.919295
vt 0.803848 0.819652
vt 0.773435 0.856308
vt 0.844519 0.733266
vt 0.827505 0.779140
vt 0.854073 0.678579
vt 0.931944 0.739571
vt 0.933231 0.814358
vt 0.904527 0.670086
vt 0.691032 0.975704
vt 0.852187 0.942600
vt 0.777155 0.975704
vt 0.906084 0.885501
vn -0.1672 0.3212 0.9321
vn 0.6497 -0.4587 0.6062
vn -0.2982 0.0850 -0.9507
vn -0.7531 0.6573 -0.0301
vn -0.6543 -0.7434 0.1388
vn 0.6543 0.7434 -0.1388
vn 0.5688 -0.6047 -0.5575
vn 0.4588 0.3974 -0.7947
vn 0.9177 0.3974 0.0000
vn 0.4588 0.3974 0.7947
vn -0.4588 0.3974 0.7947
vn -0.9177 0.3974 0.0000
vn -0.4588 0.3974 -0.7947
vn 0.0000 -1.0000 0.0000
vn 0.6887 -0.6985 0.1945
vn 0.1859 -0.5894 0.7862
vn -0.3825 -0.1675 0.9087
vn -0.7606 0.3583 0.5414
vn 0.4681 -0.6984 0.5414
vn -0.1084 -0.4032 0.9087
vn -0.6106 0.0956 0.7862
vn -0.7937 0.5764 0.1945
vn -0.7295 -0.5711 0.3764
vn -0.9674 0.1179 0.2243
vn 0.2613 -0.9388 0.2243
vn -0.4555 -0.8068 0.3764
vn -0.9109 -0.2535 0.3256
vn -0.8680 0.4900 0.0805
vn 0.6144 -0.7849 0.0805
vn -0.1144 -0.9386 0.3256
vn 0.2613 -0.9388 -0.2243
vn -0.4555 -0.8068 -0.3764
vn -0.9109 -0.2535 -0.3256
vn -0.8680 0.4900 -0.0805
vn 0.6144 -0.7849 -0.0805
vn -0.1144 -0.9386 -0.3256
vn -0.7295 -0.5711 -0.3764
vn -0.9674 0.1179 -0.2243
vn -0.6106 0.0956 -0.7862
vn -0.7937 0.5764 -0.1945
vn 0.6887 -0.6985 -0.1945
vn 0.1859 -0.5894 -0.7862
vn -0.3825 -0.1675 -0.9087
vn -0.7606 0.3583 -0.5414
vn 0.4681 -0.6984 -0.5414
vn -0.1084 -0.4032 -0.9087
usemtl teepeetex
s off
f 26/1/1 10/2/1 21/3/1 22/4/1
f 10/5/2 12/6/2 17/7/2 21/8/2
f 25/9/3 24/10/3 14/11/3 15/12/3
f 14/13/3 24/14/3 23/15/3 16/16/3
f 27/17/4 26/18/4 24/19/4 25/20/4
f 15/21/5 13/22/5 11/23/5 27/24/5 25/25/5
f 17/26/6 16/27/6 23/28/6 22/29/6 21/30/6
f 11/31/1 10/32/1 26/33/1 27/34/1
f 12/35/7 14/36/7 16/37/7 17/38/7
f 13/39/2 12/40/2 10/41/2 11/42/2
f 24/43/4 26/44/4 22/45/4 23/46/4
f 15/47/7 14/36/7 12/35/7 13/48/7
usemtl teepeetex_tiletex
f 1/49/8 5/50/8 2/51/8
f 2/51/9 5/50/9 3/52/9
f 3/52/10 5/50/10 4/53/10
f 4/53/11 5/50/11 6/54/11
f 6/54/12 5/50/12 7/55/12
f 7/55/13 5/50/13 1/49/13
f 1/56/14 2/57/14 3/58/14 4/59/14 6/60/14 7/61/14
f 20/62/15 34/63/15 41/64/15
f 33/65/16 32/66/16 39/67/16 40/68/16
f 31/69/17 30/70/17 37/71/17 38/72/17
f 29/73/18 28/74/18 35/75/18 36/76/18
f 34/63/19 33/65/19 40/68/19 41/64/19
f 32/66/20 31/69/20 38/72/20 39/67/20
f 30/70/21 29/73/21 36/76/21 37/71/21
f 28/74/22 19/77/22 35/75/22
f 38/72/23 37/71/23 44/78/23 45/79/23
f 36/76/24 35/75/24 42/80/24 43/81/24
f 41/64/25 40/68/25 47/82/25 48/83/25
f 39/67/26 38/72/26 45/79/26 46/84/26
f 37/71/27 36/76/27 43/81/27 44/78/27
f 35/75/28 19/77/28 42/80/28
f 20/62/29 41/64/29 48/83/29
f 40/68/30 39/67/30 46/84/30 47/82/30
f 48/83/31 47/82/31 54/85/31 55/86/31
f 46/84/32 45/79/32 52/87/32 53/88/32
f 44/78/33 43/81/33 50/89/33 51/90/33
f 42/80/34 19/77/34 49/91/34
f 20/62/35 48/83/35 55/86/35
f 47/82/36 46/84/36 53/88/36 54/85/36
f 45/79/37 44/78/37 51/90/37 52/87/37
f 43/81/38 42/80/38 49/91/38 50/89/38
f 51/90/39 50/89/39 57/92/39 58/93/39
f 49/91/40 19/77/40 56/94/40
f 20/62/41 55/86/41 61/95/41
f 54/85/42 53/88/42 59/96/42 60/97/42
f 52/87/43 51/90/43 58/93/43 18/98/43
f 50/89/44 49/91/44 56/94/44 57/92/44
f 55/86/45 54/85/45 60/97/45 61/95/45
f 53/88/46 52/87/46 18/98/46 59/96/46
l 9 8
o ground_ground_Cube
v 0.169436 0.281918 3.572619
v -1.164294 0.427964 3.935211
v -1.977129 0.338229 3.704524
v 2.589113 0.338229 3.704524
v 2.940586 0.591764 2.041368
v 1.985809 0.834738 2.654498
v -3.726417 0.417686 -1.633867
v -2.701799 1.253696 -1.082023
v -2.544024 0.850415 -2.698700
v -2.860238 0.994129 0.760530
v -2.281234 0.866329 -1.054005
v -3.616111 0.652334 1.333322
v -3.454831 0.488112 2.753705
v -3.735427 0.338229 3.704524
v -3.735427 0.338229 2.188522
v -2.890257 0.338229 3.704524
v -0.616827 0.974910 -1.717336
v -1.616747 0.767137 -2.973630
v 3.057085 0.937158 -0.680392
v 3.650065 0.663785 1.487788
v 3.446606 0.704110 -2.431181
v 3.204179 0.654668 2.507480
v 1.068603 0.959300 2.629240
v -0.690907 0.992182 2.774771
v 1.690127 0.577773 3.655843
v 0.216767 1.169216 -0.365954
v 0.630883 0.710396 -2.577147
v 1.218431 0.338229 3.704524
v 0.029902 0.338230 -3.885847
v -2.437889 0.338230 -3.671846
v -2.839631 0.384803 -3.958900
v -0.157411 0.724797 -3.560972
v 2.335333 0.338230 -3.881253
v -2.603763 0.692888 1.715310
v -3.735427 0.338229 -1.133338
v -3.790387 0.419775 -3.974628
v -3.735427 0.338230 -3.105473
v 1.685324 0.774993 -2.697031
v 1.872658 0.836138 -3.242445
v 2.443257 0.852798 -1.062659
v 2.252893 0.958408 0.568996
v -0.942476 0.940447 1.359196
v 0.000227 0.491612 1.645273
v 2.941855 0.514130 -3.542251
v 3.818508 0.338229 3.704524
v 3.818508 0.338229 -0.900248
v 3.818508 0.338229 1.797276
v -1.855682 0.771145 2.991032
v 3.818508 0.338230 -3.881880
v -3.735427 0.338230 -3.881253
v -3.735427 -0.344597 -3.881253
v -3.735427 -0.344597 -3.105473
v -3.735427 -0.344598 3.704524
v 3.818508 -0.344598 3.704524
v 3.818508 -0.344597 -3.881880
v 3.848730 0.338230 -3.881253
v 2.339344 0.674207 1.704430
v 2.324450 0.767054 2.111476
v 2.460423 0.816425 1.987816
v 2.221216 0.679767 1.890431
v 2.375621 0.593705 1.815568
v 2.512812 0.682341 1.888466
v 2.453624 0.911033 1.797814
v 2.292998 1.089372 1.866390
v 2.213126 0.805267 1.770701
v 2.502307 0.778531 1.744285
v 2.356880 0.834870 1.694615
v -2.572255 1.184559 -2.158354
v -2.370715 0.844517 -2.023140
v -2.558345 0.863720 -2.048522
v -2.380060 1.080562 -2.129595
v -2.524782 1.155116 -2.027863
v -2.620639 1.011983 -1.979738
v -2.674390 0.930746 -2.213259
v -2.550074 0.798475 -2.384602
v -2.465941 1.078358 -2.280494
v -2.710196 1.047307 -2.124246
v -2.630440 1.076660 -2.264130
v -1.978532 0.914687 -2.267610
v -1.803869 0.782335 -2.104604
v -1.900915 0.851818 -2.069474
v -1.872714 0.817656 -2.255295
v -1.893779 0.940421 -2.239928
v -1.905189 0.952161 -2.124146
v -2.034801 0.850962 -2.106198
v -2.052303 0.689031 -2.096043
v -1.982377 0.788481 -2.258396
v -2.015742 0.939082 -2.146360
v -2.048062 0.859397 -2.210046
v 2.613387 0.287199 2.286695
v 2.530395 0.555854 2.410451
v 2.732302 1.454413 2.220469
v 2.530395 0.555854 2.088454
v 2.900856 1.187828 2.414063
v 2.531548 0.459343 2.018616
v 2.748450 0.428227 2.243730
v 2.932698 1.308282 1.937892
v 2.921258 0.354430 1.973751
v 2.770303 -0.056663 1.473424
v 3.035126 0.130594 1.572950
v 3.198929 1.150077 1.683604
v 2.724341 0.239112 1.707423
v 3.216528 0.891727 1.367418
v 2.613022 0.169061 1.710627
v 2.753343 0.148663 1.393998
v 2.802090 1.182175 1.565751
v 2.409325 0.236089 1.316782
vt 0.878123 0.402428
vt 0.879030 0.423017
vt 0.864352 0.394481
vt 0.910994 0.317869
vt 0.910994 0.362844
vt 0.881636 0.344835
vt 0.931931 0.403249
vt 0.931931 0.422545
vt 0.911348 0.416477
vt 0.986649 0.401151
vt 0.986649 0.423310
vt 0.970328 0.423924
vt 0.929795 0.449682
vt 0.910994 0.449999
vt 0.915024 0.432895
vt 0.916949 0.317869
vt 0.938305 0.320637
vt 0.928150 0.330240
vt 0.962251 0.455568
vt 0.951122 0.444672
vt 0.962251 0.430352
vt 0.878986 0.373737
vt 0.874335 0.394481
vt 0.852337 0.363031
vt 0.856314 0.394481
vt 0.883497 0.325624
vt 0.910994 0.401150
vt 0.972552 0.405572
vt 0.852337 0.423017
vt 0.929795 0.429680
vt 0.910994 0.333192
vt 0.911063 0.360618
vt 0.938305 0.342107
vt 0.917775 0.429680
vt 0.905404 0.453851
vt 0.914578 0.431433
vt 0.914578 0.473086
vt 0.887091 0.344499
vt 0.887091 0.391087
vt 0.856867 0.372574
vt 0.989028 0.366404
vt 0.969453 0.368538
vt 0.973102 0.346795
vt 0.941018 0.389014
vt 0.935493 0.409552
vt 0.917377 0.405145
vt 0.887091 0.450172
vt 0.887783 0.431433
vt 0.905404 0.437532
vt 0.905404 0.453642
vt 0.890350 0.464424
vt 0.941018 0.430409
vt 0.945550 0.364345
vt 0.949109 0.345098
vt 0.969453 0.379243
vt 0.969453 0.344499
vt 0.858828 0.352798
vt 0.989028 0.344499
vt 0.924243 0.388598
vt 0.887091 0.431433
vt 0.907202 0.390894
vt 0.915558 0.431433
vt 0.973856 0.415539
vt 0.973856 0.430410
vt 0.958771 0.419318
vt 0.967084 0.388598
vt 0.941018 0.417956
vt 0.958771 0.388598
vt 0.958771 0.423944
vt 0.947588 0.438567
vt 0.972173 0.358610
vt 0.975849 0.349403
vt 0.975849 0.366809
vt 0.965582 0.403616
vt 0.965582 0.422624
vt 0.953080 0.415114
vt 0.967883 0.364669
vt 0.967883 0.372753
vt 0.961016 0.371179
vt 0.898541 0.418145
vt 0.896118 0.427054
vt 0.888776 0.424999
vt 0.962599 0.395925
vt 0.962755 0.389051
vt 0.970966 0.390869
vt 0.898541 0.421005
vt 0.905792 0.417849
vt 0.905792 0.423686
vt 0.898541 0.435480
vt 0.971878 0.383156
vt 0.978412 0.377231
vt 0.978412 0.393522
vt 0.966615 0.377231
vt 0.953833 0.406956
vt 0.959821 0.364572
vt 0.891707 0.417849
vt 0.941523 0.423882
vt 0.953080 0.408763
vt 0.953080 0.426098
vt 0.971878 0.395925
vt 0.899610 0.428032
vt 0.904980 0.438504
vt 0.973048 0.422925
vt 0.973048 0.437462
vt 0.965582 0.425003
vt 0.966644 0.418440
vt 0.975829 0.910666
vt 0.975829 0.989981
vt 0.896514 0.989981
vt 0.896513 0.989980
vt 0.896513 0.910665
vt 0.975828 0.910665
vt 0.978427 0.909909
vt 0.899113 0.989224
vt 0.978427 0.989224
vt 0.979348 0.910666
vt 0.979348 0.989981
vt 0.900033 0.989981
vt 0.899111 0.989223
vt 0.899111 0.909908
vt 0.978426 0.909908
vt 0.900031 0.989980
vt 0.979346 0.910665
vt 0.900031 0.910665
vt 0.434237 0.767412
vt 0.526420 0.744224
vt 0.617039 0.771711
vt 0.197078 0.778788
vt 0.163657 0.624533
vt 0.251411 0.667728
vt 0.657119 0.281380
vt 0.592122 0.335216
vt 0.565031 0.235392
vt 0.642791 0.459235
vt 0.558132 0.345370
vt 0.724622 0.487709
vt 0.763447 0.641895
vt 0.814109 0.725438
vt 0.787789 0.566418
vt 0.725417 0.767764
vt 0.447061 0.306461
vt 0.511188 0.222657
vt 0.158909 0.385744
vt 0.097820 0.576344
vt 0.124418 0.229148
vt 0.140212 0.666851
vt 0.329227 0.656731
vt 0.485511 0.650974
vt 0.284118 0.757089
vt 0.395887 0.410383
vt 0.356535 0.238697
vt 0.337187 0.780368
vt 0.840387 0.896216
vt 0.630872 0.901301
vt 0.598451 0.874663
vt 0.435557 0.178133
vt 0.432570 0.145756
vt 0.572479 0.168764
vt 0.250035 0.107915
vt 0.642818 0.548762
vt 0.684064 0.323850
vt 0.611003 0.173461
vt 0.633817 0.208003
vt 0.282396 0.223872
vt 0.273948 0.181268
vt 0.212055 0.356620
vt 0.229350 0.493736
vt 0.497694 0.536262
vt 0.423184 0.566200
vt 0.518222 0.942016
vt 0.518222 0.868011
vt 0.176720 0.134443
vt 0.085316 0.764225
vt 0.070227 0.363422
vt 0.079423 0.581649
vt 0.587570 0.665842
vt 0.078509 0.068805
vt 0.517941 0.868011
vt 0.008460 0.933118
vt 0.000140 0.868011
vt 0.615703 0.170052
vt 0.645361 0.134002
vt 0.676672 0.184765
vt 0.959817 0.826149
vt 0.000140 0.867730
vt 0.063921 0.608447
vt 0.002601 0.850505
vt 0.009983 0.022287
vt 0.000140 0.000140
vt 1.000000 0.000533
vt 0.962795 0.123421
vt 0.968996 0.223758
vt 0.879850 0.189161
vt 0.789938 0.074409
vt 0.349197 0.933398
vt 0.035451 0.988725
vt 0.111412 0.983028
vt 0.032688 0.999860
vt 0.000140 0.933398
vn 0.0777 0.8936 0.4422
vn -0.9340 0.1540 0.3224
vn -0.7446 -0.4853 -0.4584
vn 0.9507 0.2898 0.1103
vn 0.6412 -0.6160 -0.4577
vn 0.2905 -0.0899 -0.9526
vn 0.6991 -0.2288 0.6774
vn -0.2545 -0.8530 0.4557
vn 0.2502 -0.8159 0.5212
vn -0.9111 0.2522 0.3259
vn -0.5791 -0.7383 -0.3457
vn 0.9465 0.2959 0.1284
vn 0.7274 0.4589 0.5102
vn 0.5291 -0.5957 -0.6042
vn 0.4430 0.4710 -0.7629
vn 0.3314 0.5836 -0.7414
vn -0.4918 0.3989 -0.7739
vn -0.4673 -0.0030 -0.8841
vn -0.0490 -0.9367 -0.3466
vn 0.8959 -0.1091 -0.4306
vn 0.4886 0.8228 -0.2901
vn -0.7915 -0.4973 0.3552
vn -0.6150 0.5884 0.5250
vn -0.7119 0.6484 -0.2698
vn -0.1654 -0.4714 0.8663
vn 0.6511 0.3333 0.6819
vn 0.2627 0.1448 0.9540
vn 0.8553 -0.1845 -0.4841
vn 0.4726 0.8809 0.0268
vn -0.7801 -0.5131 0.3580
vn -0.4412 -0.8363 0.3255
vn -0.6043 0.7013 0.3781
vn -0.8732 0.0965 -0.4776
vn -0.7978 0.0303 -0.6022
vn -0.0957 0.3722 -0.9232
vn -0.0762 0.7187 -0.6912
vn -0.1976 -0.6479 0.7356
vn 0.3110 -0.8642 -0.3955
vn 0.0479 -0.0742 -0.9961
vn -0.2380 0.4569 0.8571
vn -0.0950 0.9894 -0.1097
vn -0.7421 0.5756 -0.3435
vn 0.5576 0.4154 0.7187
vn 0.9079 0.2018 -0.3675
vn 0.8567 0.5148 0.0322
vn 0.2515 -0.9105 -0.3283
vn 0.2610 0.1639 -0.9513
vn -0.2267 0.4441 0.8668
vn 0.0113 0.0614 0.9981
vn -0.2045 0.9456 -0.2530
vn -0.9517 0.2713 0.1436
vn -0.9842 0.1148 0.1350
vn -0.7681 -0.3428 -0.5408
vn -0.6189 -0.0384 -0.7845
vn -0.9757 0.2192 0.0000
vn -0.8829 0.2234 0.4130
vn -0.8434 -0.0101 -0.5371
vn 0.3459 -0.1560 0.9252
vn 0.6842 -0.2451 0.6869
vn -0.2521 -0.1471 0.9565
vn -0.0018 -0.9298 0.3680
vn 0.3686 0.9042 0.2157
vn -0.5257 0.8119 -0.2538
vn 0.6630 0.7314 0.1600
vn -0.3448 0.9331 0.1018
vn -0.3149 0.9381 0.1442
vn -0.4712 0.8821 0.0000
vn 0.0000 0.9878 0.1557
vn -0.6961 0.6999 0.1600
vn -0.0987 0.9914 -0.0854
vn 0.4631 0.8862 -0.0149
vn -0.1418 0.9885 -0.0532
vn 0.0445 0.9449 0.3242
vn 0.0776 0.9790 -0.1886
vn -0.1352 0.4460 0.8848
vn -0.0124 -0.9896 -0.1432
vn 0.0299 0.6515 -0.7580
vn 0.0015 0.6438 -0.7652
vn -0.0276 0.9848 0.1716
vn -0.8292 -0.5589 -0.0000
vn -0.9608 0.2759 0.0265
vn -0.0173 0.9392 -0.3429
vn -0.0502 0.9943 0.0942
vn 0.0220 0.9927 0.1188
vn 0.4734 0.8808 -0.0018
vn -0.0717 0.9966 -0.0416
vn 0.1321 0.9883 0.0755
vn 0.4549 0.8833 -0.1131
vn -0.1376 0.9894 0.0459
vn 0.1045 -0.7279 0.6777
vn -0.9936 0.1127 0.0000
vn -0.3461 0.9356 0.0695
vn -0.6190 0.7844 -0.0390
vn 0.1039 0.9562 0.2738
vn -0.9298 0.3681 0.0055
vn 0.0618 0.9756 -0.2105
vn 0.0402 0.9342 -0.3546
vn -0.0437 -0.9940 -0.1001
vn -0.0351 -0.9952 -0.0912
vn 0.6582 0.7284 0.1902
vn 0.0158 0.9705 -0.2405
vn 0.0487 0.8046 -0.5918
vn 0.0845 0.8146 -0.5738
vn -0.0172 0.9102 -0.4139
vn -0.0026 0.9921 0.1258
vn 0.2576 0.9586 0.1212
vn 0.8882 0.4595 0.0000
vn -0.0633 0.9980 0.0045
vn -0.0632 0.9978 -0.0182
vn 0.5054 0.8588 -0.0836
vn -0.5497 0.8077 0.2130
vn -0.3093 0.9429 0.1236
vn 0.5452 0.8303 0.1155
vn 0.0000 -0.9320 0.3625
vn 0.7671 0.6407 -0.0332
vn -0.3357 0.9419 0.0100
vn 0.7013 0.7129 0.0000
vn -0.0060 0.9846 0.1749
vn -0.0813 0.9591 -0.2712
vn 0.2118 0.9428 -0.2574
vn 0.0579 0.9912 -0.1191
vn -0.1498 0.9885 0.0224
vn 0.1109 0.9700 -0.2162
vn -0.2049 0.9720 0.1146
vn 0.3023 0.9485 0.0950
vn -0.0002 0.8878 -0.4603
vn 0.0000 0.1992 0.9800
vn 0.0000 0.9668 0.2556
vn -0.0980 0.9101 0.4026
vn -0.0046 0.9001 0.4357
vn 0.2415 0.9482 0.2062
vn 0.1150 0.9219 0.3699
vn 0.0000 0.9197 -0.3926
vn -0.0223 0.9975 -0.0672
vn -0.1494 0.9887 -0.0096
vn -0.1783 0.9830 0.0443
vn 0.0129 0.9901 0.1399
vn -0.1013 0.9089 0.4045
vn -0.0310 0.9885 -0.1482
vn 0.0000 1.0000 0.0000
vn -1.0000 0.0000 0.0000
vn 0.0000 0.0000 1.0000
vn 1.0000 0.0000 0.0000
vn -0.0001 0.0000 -1.0000
vn -0.0000 -1.0000 -0.0000
vn -0.0006 -0.8543 -0.5197
vn 0.0171 0.7581 0.6520
vn 0.8292 0.5589 0.0000
usemtl tiletex
s off
f 120/99/47 124/100/47 119/101/47
f 119/102/48 125/103/48 126/104/48
f 121/105/49 126/106/49 118/107/49
f 124/108/50 120/109/50 123/110/50
f 127/111/51 123/112/51 122/113/51
f 127/114/52 118/115/52 128/116/52
f 123/117/53 120/118/53 119/119/53
f 121/120/54 122/121/54 119/122/54
f 122/121/55 123/123/55 119/122/55
f 119/102/56 126/104/56 121/124/56
f 121/105/57 118/107/57 122/125/57
f 124/108/58 123/110/58 127/126/58
f 125/127/59 119/101/59 124/100/59
f 127/111/60 122/113/60 118/128/60
f 124/129/61 127/114/61 128/116/61
f 125/130/62 124/129/62 128/116/62
f 126/131/63 125/130/63 128/116/63
f 128/132/64 118/107/64 126/106/64
f 131/133/65 135/134/65 130/135/65
f 130/136/66 136/137/66 137/138/66
f 132/139/67 137/140/67 129/141/67
f 135/142/68 131/143/68 134/144/68
f 138/145/69 134/146/69 133/147/69
f 138/145/70 129/148/70 139/149/70
f 134/144/71 131/143/71 130/150/71
f 132/151/72 133/152/72 130/153/72
f 133/152/73 134/154/73 130/153/73
f 130/136/74 137/138/74 132/155/74
f 132/139/75 129/141/75 133/156/75
f 135/142/76 134/144/76 138/157/76
f 136/158/77 130/159/77 135/160/77
f 138/145/78 133/147/78 129/148/78
f 135/161/79 138/162/79 139/163/79
f 136/164/80 135/161/80 139/163/80
f 137/165/81 136/166/81 139/167/81
f 139/167/82 129/168/82 137/165/82
f 142/169/83 146/170/83 141/171/83
f 141/172/84 147/173/84 148/174/84
f 143/175/85 148/176/85 140/177/85
f 146/178/86 142/179/86 145/180/86
f 149/181/87 145/182/87 144/183/87
f 149/184/88 140/185/88 150/186/88
f 145/180/89 142/179/89 141/187/89
f 143/188/90 144/189/90 141/190/90
f 144/183/91 145/182/91 141/191/91
f 141/172/92 148/174/92 143/192/92
f 143/175/93 140/177/93 144/193/93
f 146/178/94 145/180/94 149/194/94
f 147/195/95 141/196/95 146/197/95
f 149/181/96 144/183/96 140/198/96
f 146/199/97 149/184/97 150/186/97
f 147/200/98 146/199/98 150/186/98
f 148/201/99 147/202/99 150/203/99
f 150/203/100 140/204/100 148/201/100
f 153/205/101 154/206/101 152/207/101
f 155/208/102 156/209/102 151/210/102
f 158/211/103 159/212/103 157/213/103
f 162/214/104 163/215/104 161/216/104
f 164/217/105 165/218/105 160/219/105
f 167/220/106 168/221/106 166/222/106
s 1
f 62/223/107 63/224/107 64/225/107
f 65/226/108 66/227/108 67/228/108
f 68/229/109 69/230/109 70/231/109
f 69/230/110 71/232/110 72/233/110
f 71/232/111 69/230/111 73/234/111
f 71/232/112 73/234/112 74/235/112
f 75/236/113 74/235/113 76/237/113
f 77/238/114 74/235/114 75/236/114
f 74/235/115 73/234/115 76/237/115
f 78/239/116 79/240/116 72/233/116
f 80/241/117 81/242/117 82/243/117
f 83/244/118 81/242/118 66/227/118
f 84/245/119 85/246/119 86/247/119
f 87/248/120 88/249/120 78/239/120
f 62/223/121 89/250/121 86/247/121
f 90/251/122 91/252/122 92/253/122
f 93/254/123 90/255/123 92/256/123
f 90/255/124 93/254/124 94/257/124
f 77/238/125 95/258/125 74/235/125
f 96/259/126 97/260/126 98/261/126
f 97/260/127 96/259/127 68/229/127
f 79/240/128 92/256/128 70/231/128
f 88/249/129 99/262/129 100/263/129
f 100/263/130 99/262/130 82/243/130
f 66/227/131 101/264/131 102/265/131
f 88/249/132 84/245/132 102/265/132
f 102/265/133 84/245/133 67/228/133
f 103/266/134 85/246/134 104/267/134
f 95/258/135 103/266/135 72/233/135
f 63/224/136 62/223/136 86/247/136
f 96/259/137 76/237/137 68/229/137
f 65/226/138 83/244/138 66/227/138
f 73/234/139 69/230/139 68/229/139
f 95/258/140 71/232/140 74/235/140
f 73/234/141 68/229/141 76/237/141
f 78/239/142 88/249/142 79/240/142
f 92/256/143 97/260/143 70/231/143
f 92/253/144 91/252/144 98/268/144
f 97/269/145 92/253/145 98/268/145
f 79/240/146 69/230/146 72/233/146
f 79/240/147 70/231/147 69/230/147
f 100/263/148 94/257/148 93/254/148
f 100/263/149 105/270/149 94/257/149
f 84/245/150 104/267/150 85/246/150
f 81/242/151 80/241/151 66/227/151
f 81/242/152 83/244/152 106/271/152
f 107/272/153 81/242/153 108/273/153
f 106/271/153 108/273/153 81/242/153
f 78/239/154 72/233/154 103/266/154
f 88/249/155 101/264/155 99/262/155
f 88/249/156 87/248/156 84/245/156
f 84/245/157 87/248/157 104/267/157
f 77/238/158 109/274/158 95/258/158
f 95/258/159 72/233/159 71/232/159
f 77/238/160 64/225/160 63/224/160
f 82/243/161 81/242/161 107/272/161
f 97/260/162 68/229/162 70/231/162
f 82/243/163 107/272/163 110/275/163
f 100/263/164 79/240/164 88/249/164
f 93/254/165 92/256/165 79/240/165
f 100/263/166 82/243/166 105/270/166
f 99/262/167 80/241/167 82/243/167
f 80/241/168 99/262/168 101/264/168
f 82/243/169 110/275/169 105/270/169
f 101/264/170 66/227/170 80/241/170
f 66/227/171 102/265/171 67/228/171
f 94/257/172 105/270/172 110/275/172
f 65/226/173 86/247/173 89/250/173
f 65/226/174 106/271/174 83/244/174
f 63/224/175 85/246/175 109/274/175
f 63/224/176 86/247/176 85/246/176
f 86/247/177 65/226/177 84/245/177
f 84/245/178 65/226/178 67/228/178
f 89/250/179 62/223/179 64/225/179
f 88/249/180 102/265/180 101/264/180
f 95/258/181 85/246/181 103/266/181
f 85/246/182 95/258/182 109/274/182
f 87/248/183 78/239/183 103/266/183 104/267/183
f 109/274/184 77/238/184 63/224/184
f 100/263/185 93/254/185 79/240/185
f 94/276/186 111/277/186 98/278/186
f 96/259/187 98/261/187 111/279/187 112/280/187 113/281/187 114/282/187 75/236/187 76/237/187
f 65/226/188 89/250/188 64/225/188 77/238/188 75/236/188 114/282/188 115/283/188 106/271/188
f 107/272/189 108/284/189 106/271/189 115/285/189 116/286/189 110/275/189
f 110/275/190 116/287/190 112/280/190 111/279/190
f 114/288/191 113/289/191 112/290/191 116/291/191 115/292/191
f 90/293/192 111/294/192 92/295/192
f 92/295/193 97/296/193 111/294/193
f 97/296/194 98/297/194 111/294/194
l 117 94
